<?xml version="1.0" encoding="UTF-8"?>
<svg width="90px" height="90px" viewBox="0 0 90 90" version="1.1" xmlns="http://www.w3.org/2000/svg" xmlns:xlink="http://www.w3.org/1999/xlink">
    <title>Flower</title>
    <g id="Artboard" stroke="none" stroke-width="1" fill="none" fill-rule="evenodd">
        <g id="flower" transform="translate(1.000000, 1.000000)" fill="#263238" fill-rule="nonzero">
            <path d="M44,64.464844 C32.976562,64.464844 24,55.488281 24,44.464844 C24,33.441406 32.976562,24.464844 44,24.464844 C55.023438,24.464844 64,33.441406 64,44.464844 C64,55.488281 55.023438,64.464844 44,64.464844 Z M44,32.464844 C37.382812,32.464844 32,37.847656 32,44.464844 C32,51.082031 37.382812,56.464844 44,56.464844 C50.617188,56.464844 56,51.082031 56,44.464844 C56,37.847656 50.617188,32.464844 44,32.464844 Z" id="Shape"></path>
            <path d="M44,88.464844 C32.023438,88.464844 22.078125,79.65625 20.289062,68.175781 C8.808594,66.386719 0,56.433594 0,44.464844 C0,32.496094 8.808594,22.546875 20.289062,20.753906 C22.078125,9.273438 32.023438,0.464844 44,0.464844 C55.976562,0.464844 65.921875,9.273438 67.710938,20.753906 C79.191406,22.546875 88,32.496094 88,44.464844 C88,56.433594 79.191406,66.386719 67.710938,68.175781 C65.921875,79.65625 55.976562,88.464844 44,88.464844 Z M44,8.464844 C35.175781,8.464844 28,15.640625 28,24.464844 C28,26.671875 26.207031,28.464844 24,28.464844 C15.175781,28.464844 8,35.640625 8,44.464844 C8,53.289062 15.175781,60.464844 24,60.464844 C26.207031,60.464844 28,62.257812 28,64.464844 C28,73.289062 35.175781,80.464844 44,80.464844 C52.824219,80.464844 60,73.289062 60,64.464844 C60,62.257812 61.792969,60.464844 64,60.464844 C72.824219,60.464844 80,53.289062 80,44.464844 C80,35.640625 72.824219,28.464844 64,28.464844 C61.792969,28.464844 60,26.671875 60,24.464844 C60,15.640625 52.824219,8.464844 44,8.464844 Z M68,24.464844 L68.078125,24.464844 L68,24.464844 Z" id="Shape"></path>
        </g>
    </g>
</svg>
